<mxfile host="app.diagrams.net" modified="2023-11-14T11:29:05.314Z" agent="Mozilla/5.0 (Windows NT 10.0; Win64; x64; rv:109.0) Gecko/20100101 Firefox/119.0" etag="k7d1io4cxA6WA2ZcRiLa" version="22.1.0" type="github">
  <diagram name="Page-1" id="wviRzHjYuYp7nCODRKFy">
    <mxGraphModel dx="1378" dy="720" grid="1" gridSize="10" guides="1" tooltips="1" connect="1" arrows="1" fold="1" page="1" pageScale="1" pageWidth="850" pageHeight="1100" math="0" shadow="0">
      <root>
        <mxCell id="0" />
        <mxCell id="1" parent="0" />
        <mxCell id="-_AT0drNBXgbAlcU2wQB-1" value="" style="sketch=0;outlineConnect=0;fontColor=#ffffff;fillColor=#e51400;strokeColor=#B20000;dashed=0;verticalLabelPosition=bottom;verticalAlign=top;align=center;html=1;fontSize=12;fontStyle=0;aspect=fixed;pointerEvents=1;shape=mxgraph.aws4.management_console2;" vertex="1" parent="1">
          <mxGeometry x="510" width="78" height="69" as="geometry" />
        </mxCell>
        <mxCell id="-_AT0drNBXgbAlcU2wQB-2" value="" style="rounded=0;whiteSpace=wrap;html=1;fillColor=#000000;" vertex="1" parent="1">
          <mxGeometry x="140" y="110" width="840" height="570" as="geometry" />
        </mxCell>
        <mxCell id="-_AT0drNBXgbAlcU2wQB-3" value="" style="outlineConnect=0;dashed=0;verticalLabelPosition=bottom;verticalAlign=top;align=center;html=1;shape=mxgraph.aws3.cloud_2;fillColor=#F58534;gradientColor=none;" vertex="1" parent="1">
          <mxGeometry x="140" y="110" width="75" height="75" as="geometry" />
        </mxCell>
        <mxCell id="-_AT0drNBXgbAlcU2wQB-4" value="" style="rounded=0;whiteSpace=wrap;html=1;fillColor=#000000;fontColor=#000000;strokeColor=#FFFFFF;strokeWidth=4;" vertex="1" parent="1">
          <mxGeometry x="210" y="180" width="720" height="430" as="geometry" />
        </mxCell>
        <mxCell id="-_AT0drNBXgbAlcU2wQB-5" value="" style="outlineConnect=0;dashed=0;verticalLabelPosition=bottom;verticalAlign=top;align=center;html=1;shape=mxgraph.aws3.virtual_private_cloud;fillColor=#F58534;gradientColor=none;" vertex="1" parent="1">
          <mxGeometry x="210" y="180" width="79.5" height="54" as="geometry" />
        </mxCell>
        <mxCell id="-_AT0drNBXgbAlcU2wQB-6" value="" style="rounded=0;whiteSpace=wrap;html=1;fillColor=#000000;strokeColor=#FFFFFF;" vertex="1" parent="1">
          <mxGeometry x="280" y="230" width="600" height="330" as="geometry" />
        </mxCell>
        <mxCell id="-_AT0drNBXgbAlcU2wQB-8" value="Subnet" style="sketch=0;outlineConnect=0;gradientColor=none;html=1;whiteSpace=wrap;fontSize=12;fontStyle=0;shape=mxgraph.aws4.group;grIcon=mxgraph.aws4.group_subnet;strokeColor=#879196;fillColor=none;verticalAlign=top;align=left;spacingLeft=30;fontColor=#879196;dashed=0;strokeWidth=4;" vertex="1" parent="1">
          <mxGeometry x="300" y="310" width="540" height="240" as="geometry" />
        </mxCell>
        <mxCell id="-_AT0drNBXgbAlcU2wQB-10" value="" style="pointerEvents=1;shadow=0;dashed=0;html=1;strokeColor=none;fillColor=#4495D1;labelPosition=center;verticalLabelPosition=bottom;verticalAlign=top;align=center;outlineConnect=0;shape=mxgraph.veeam.cpu;" vertex="1" parent="1">
          <mxGeometry x="370" y="445" width="70" height="70" as="geometry" />
        </mxCell>
        <mxCell id="-_AT0drNBXgbAlcU2wQB-11" value="" style="pointerEvents=1;shadow=0;dashed=0;html=1;strokeColor=none;fillColor=#4495D1;labelPosition=center;verticalLabelPosition=bottom;verticalAlign=top;align=center;outlineConnect=0;shape=mxgraph.veeam.cpu;" vertex="1" parent="1">
          <mxGeometry x="660" y="445" width="70" height="70" as="geometry" />
        </mxCell>
        <mxCell id="-_AT0drNBXgbAlcU2wQB-13" value="" style="endArrow=classic;html=1;rounded=0;strokeWidth=2;strokeColor=#FFFFFF;" edge="1" parent="1" target="-_AT0drNBXgbAlcU2wQB-11">
          <mxGeometry width="50" height="50" relative="1" as="geometry">
            <mxPoint x="445" y="480" as="sourcePoint" />
            <mxPoint x="675.0000000000002" y="537.499999999999" as="targetPoint" />
          </mxGeometry>
        </mxCell>
      </root>
    </mxGraphModel>
  </diagram>
</mxfile>
